<svg width="11" height="13" viewBox="0 0 11 13" fill="none" xmlns="http://www.w3.org/2000/svg">
    <path fill-rule="evenodd" clip-rule="evenodd" d="M4.037.246A.496.496 0 0 1 4.472 0h1.987a.496.496 0 0 1 .435.246.496.496 0 0 1 0 .508.496.496 0 0 1-.435.246h-.497v1.024c2.78.257 4.969 2.613 4.969 5.476 0 3.031-2.453 5.5-5.466 5.5C2.453 13 0 10.531 0 7.5c0-2.863 2.19-5.219 4.969-5.476V1h-.497a.496.496 0 0 1-.435-.246.496.496 0 0 1 0-.508zM8.974 2.31a.499.499 0 0 1 .462-.317c.132 0 .26.059.357.157L10.85 3.21a.507.507 0 0 1 .136.485.505.505 0 0 1-.357.359.502.502 0 0 1-.485-.14L9.087 2.851a.496.496 0 0 1-.113-.543zM5.465 3c2.477 0 4.472 2.008 4.472 4.5S7.942 12 5.465 12C2.99 12 .994 9.992.994 7.5S2.989 3 5.465 3zM3.012 5.31a.497.497 0 0 1 .458-.317c.136 0 .264.059.357.157l1.988 2a.5.5 0 0 1-.218.843.493.493 0 0 1-.481-.14l-1.987-2a.49.49 0 0 1-.117-.543z" fill="#666"/>
</svg>
