<svg width="14" height="13" viewBox="0 0 14 13" fill="none" xmlns="http://www.w3.org/2000/svg">
    <path fill-rule="evenodd" clip-rule="evenodd" d="M.055 3.599C.305 1.578 1.973 0 4 0c1.242 0 2.27.67 3 1.59C7.73.67 8.758 0 10 0c2.031 0 3.695 1.578 3.95 3.607.03.161.05.33.05.525 0 2.36-1.746 4.49-3.41 6.072a23.86 23.86 0 0 1-3.332 2.63L7 13l-.258-.165s-1.664-1.045-3.328-2.631C1.746 8.622 0 6.492 0 4.132c0-.194.02-.368.055-.533zM6.57 2.558C6.047 1.646 5.102 1.033 4 1.033c-1.535 0-2.773 1.182-2.96 2.711v.024l-.009.025c-.02.092-.031.201-.031.339C1 5.939 2.504 7.94 4.086 9.445c1.396 1.327 2.58 2.09 2.88 2.282L7 11.75l.034-.022c.299-.192 1.483-.955 2.876-2.282C11.496 7.94 13 5.94 13 4.132c0-.134-.012-.242-.031-.34l-.008-.04c-.184-1.537-1.426-2.72-2.961-2.72-1.102 0-2.047.614-2.57 1.526l-.43.75-.43-.75z" fill="#fff"/>
</svg>
