<svg width="18" height="30" viewBox="0 0 18 30" fill="none" xmlns="http://www.w3.org/2000/svg">
    <path fill-rule="evenodd" clip-rule="evenodd" d="M8.997 0c4.554 0 8.256 3.549 8.256 7.91 0 4.361-3.704 7.903-8.256 7.903S.745 12.266.745 7.906c0-4.36 3.7-7.908 8.252-7.906zm0 4.724c-1.83 0-3.317 1.427-3.317 3.182 0 1.754 1.488 3.18 3.317 3.18 1.832 0 3.322-1.426 3.322-3.18 0-1.755-1.49-3.182-3.322-3.182zM3.6 16.197a2.399 2.399 0 0 0-.871-.318c-.904-.141-1.848.235-2.366 1.025-.693 1.054-.364 2.444.734 3.105a15.413 15.413 0 0 0 4.66 1.85l-4.488 4.295a2.189 2.189 0 0 0 .004 3.186c.46.441 1.058.66 1.658.66.601 0 1.203-.219 1.663-.66l4.407-4.222 4.407 4.223c.918.879 2.404.879 3.322 0a2.183 2.183 0 0 0 0-3.183l-4.488-4.3a15.426 15.426 0 0 0 4.66-1.845c1.1-.662 1.426-2.055.738-3.109-.691-1.054-2.14-1.37-3.238-.707-3.286 1.98-7.52 1.98-10.802 0z" fill="#fff"/>
</svg>
