<svg width="100" height="61" viewBox="0 0 100 61" fill="none" xmlns="http://www.w3.org/2000/svg">
    <path fill-rule="evenodd" clip-rule="evenodd" d="M10.727 9.399C11.637 3.87 15.273 0 22.182 0c8.364 0 12.182 5.529 12.363 12.9 0 7.372-3.818 12.9-12.181 12.9-7.091 0-10.728-4.054-11.637-9.951h-3.09v9.583H0V.552h7.636V9.4h3.091zm6.91 3.686c0 3.87 1.09 6.634 4.545 6.634 3.454-.184 4.545-2.949 4.545-6.634 0-3.87-1.09-6.635-4.545-6.635s-4.546 2.764-4.546 6.635zM68.545.553v14.19c0 3.133 1.272 3.87 3.636 3.87h3.272V.553h7.455v24.695H71.636c-7.09 0-10.545-3.318-10.545-10.505V.553h7.455zM40.909 52.338v-14.19c0-2.949-1.273-3.87-3.636-3.87H34v18.06h-7.454V27.643h11.272c7.091 0 10.546 3.318 10.546 10.505v14.19h-7.455zm10-42.94h-7.09V.554h-7.455v24.695H44v-9.4h6.91v9.4h7.636V.553h-7.637v8.846zm36.91 17.693c-8.365 0-12.183 5.528-12.183 12.9 0 7.556 3.819 12.9 12.182 12.9 8.364 0 12.182-5.529 12.182-12.9 0-7.372-3.818-12.9-12.182-12.9zm0 19.719c-3.455 0-4.546-2.765-4.546-6.635 0-3.87 1.272-6.634 4.545-6.634 3.455 0 4.546 2.764 4.546 6.634 0 3.686-1.091 6.635-4.546 6.635zm-29.274 5.713h2.91c8.181 0 12.727-4.055 12.727-12.348 0-8.293-4.546-12.347-12.727-12.347H50.909V61h7.455v-8.477h.181zm0-6.82V34.279h2.546c3.455 0 5.455 1.29 5.455 5.713 0 4.239-2 5.713-5.455 5.713h-2.546z" fill="#fff"/>
</svg>
