<svg width="30" height="24" viewBox="0 0 30 24" fill="none" xmlns="http://www.w3.org/2000/svg">
    <path d="M30 2.84c-1.104.484-2.29.808-3.535.955A6.087 6.087 0 0 0 29.17.443a12.458 12.458 0 0 1-3.909 1.471A6.19 6.19 0 0 0 20.77 0c-3.4 0-6.155 2.714-6.155 6.059 0 .475.056.938.16 1.38A17.565 17.565 0 0 1 2.087 1.107a5.973 5.973 0 0 0-.832 3.048c0 2.101 1.086 3.956 2.737 5.042a6.216 6.216 0 0 1-2.787-.757v.076c0 2.936 2.12 5.385 4.937 5.94a6.247 6.247 0 0 1-2.78.105c.784 2.407 3.057 4.16 5.75 4.208a12.469 12.469 0 0 1-7.644 2.595c-.496 0-.987-.029-1.469-.086A17.624 17.624 0 0 0 9.435 24c11.32 0 17.51-9.232 17.51-17.24 0-.262-.006-.523-.018-.783A12.42 12.42 0 0 0 30 2.841z" fill="#fff"/>
</svg>
