<svg width="40" height="24" viewBox="0 0 40 24" fill="none" xmlns="http://www.w3.org/2000/svg">
    <path fill-rule="evenodd" clip-rule="evenodd" d="M4.29 3.698C4.656 1.523 6.11 0 8.874 0c3.345 0 4.873 2.175 4.945 5.076 0 2.9-1.527 5.075-4.873 5.075-2.836 0-4.29-1.595-4.654-3.915H3.055v3.77H0V.218h3.055v3.48H4.29zm2.765 1.45c0 1.523.436 2.61 1.818 2.61 1.382-.072 1.818-1.16 1.818-2.61 0-1.523-.437-2.61-1.818-2.61-1.382 0-1.818 1.087-1.818 2.61zM27.418.218V5.8c0 1.232.51 1.522 1.455 1.522h1.309V.218h2.982v9.716h-4.51c-2.836 0-4.218-1.306-4.218-4.133V.218h2.982zM16.364 20.592V15.01c0-1.16-.51-1.523-1.455-1.523H13.6v7.106h-2.982v-9.716h4.51c2.836 0 4.218 1.305 4.218 4.133v5.583h-2.982zm4-16.894h-2.837V.218h-2.982v9.716H17.6V6.236h2.764v3.698h3.054V.218h-3.054v3.48zm14.763 6.96c-3.345 0-4.873 2.176-4.873 5.076 0 2.973 1.528 5.076 4.873 5.076 3.346 0 4.873-2.176 4.873-5.076 0-2.9-1.527-5.075-4.873-5.075zm0 7.759c-1.382 0-1.818-1.088-1.818-2.61 0-1.523.51-2.61 1.818-2.61 1.382 0 1.819 1.087 1.819 2.61 0 1.45-.437 2.61-1.819 2.61zm-11.709 2.248h1.164c3.273 0 5.09-1.595 5.09-4.858s-1.817-4.858-5.09-4.858h-4.218V24h2.982v-3.335h.072zm0-2.683v-4.496h1.018c1.382 0 2.182.508 2.182 2.248 0 1.668-.8 2.248-2.182 2.248h-1.018z" fill="#fff"/>
</svg>
