<svg width="30" height="16" viewBox="0 0 30 16" fill="none" xmlns="http://www.w3.org/2000/svg">
    <path fill-rule="evenodd" clip-rule="evenodd" d="M28.63 15.934l-4.004.052s-.863.157-1.993-.57c-1.498-.96-2.91-3.459-4.011-3.135-1.117.332-1.083 2.58-1.083 2.58s.009.396-.246.654c-.277.278-.819.25-.819.25H14.68s-3.956.306-7.442-3.086C3.44 8.981.083 1.683.083 1.683s-.197-.46.013-.696C.335.727.975.72.975.72L5.262.7s.402.066.694.266c.238.164.373.472.373.472S7.02 3.075 7.94 4.56c1.792 2.892 2.623 3.526 3.232 3.216.887-.452.622-4.088.622-4.088s.017-1.32-.446-1.908c-.36-.458-1.037-.594-1.333-.628-.242-.03.152-.554.666-.79.772-.352 2.135-.372 3.744-.358C15.68.015 16.041.087 16.53.2c1.479.334.977 1.622.977 4.712 0 .99-.19 2.382.572 2.84.33.198 1.134.03 3.138-3.158.953-1.512 1.667-3.288 1.667-3.288s.157-.316.399-.452c.248-.14.583-.096.583-.096l4.51-.026s1.355-.152 1.576.422c.231.6-.506 2.002-2.349 4.296-3.026 3.768-3.362 3.418-.849 5.598 2.4 2.082 2.896 3.095 2.98 3.223.991 1.542-1.104 1.664-1.104 1.664z" fill="#fff"/>
</svg>
