<svg width="41" height="41" viewBox="0 0 41 41" fill="none" xmlns="http://www.w3.org/2000/svg">
<g opacity="0.5" clip-path="url(#clip0)">
<rect x="0.5" y="0.5" width="40" height="40" rx="4.5" stroke="white"/>
<path d="M17.2109 24H15.7578V14.3672L12.8438 15.4375V14.125L16.9844 12.5703H17.2109V24ZM28.3438 15.5938C28.3438 16.1615 28.1927 16.6667 27.8906 17.1094C27.5938 17.5521 27.1901 17.8984 26.6797 18.1484C27.2734 18.4036 27.7422 18.776 28.0859 19.2656C28.4349 19.7552 28.6094 20.3099 28.6094 20.9297C28.6094 21.9141 28.276 22.6979 27.6094 23.2812C26.9479 23.8646 26.0755 24.1562 24.9922 24.1562C23.8984 24.1562 23.0208 23.8646 22.3594 23.2812C21.7031 22.6927 21.375 21.9089 21.375 20.9297C21.375 20.3151 21.5417 19.7604 21.875 19.2656C22.2135 18.7708 22.6797 18.3958 23.2734 18.1406C22.7682 17.8906 22.3698 17.5443 22.0781 17.1016C21.7865 16.6589 21.6406 16.1562 21.6406 15.5938C21.6406 14.6354 21.9479 13.875 22.5625 13.3125C23.1771 12.75 23.987 12.4688 24.9922 12.4688C25.9922 12.4688 26.7995 12.75 27.4141 13.3125C28.0339 13.875 28.3438 14.6354 28.3438 15.5938ZM27.1641 20.8984C27.1641 20.263 26.9609 19.7448 26.5547 19.3438C26.1536 18.9427 25.6276 18.7422 24.9766 18.7422C24.3255 18.7422 23.8021 18.9401 23.4062 19.3359C23.0156 19.7318 22.8203 20.2526 22.8203 20.8984C22.8203 21.5443 23.0104 22.0521 23.3906 22.4219C23.776 22.7917 24.3099 22.9766 24.9922 22.9766C25.6693 22.9766 26.2005 22.7917 26.5859 22.4219C26.9714 22.0469 27.1641 21.5391 27.1641 20.8984ZM24.9922 13.6562C24.4245 13.6562 23.9635 13.8333 23.6094 14.1875C23.2604 14.5365 23.0859 15.013 23.0859 15.6172C23.0859 16.1953 23.2578 16.6641 23.6016 17.0234C23.9505 17.3776 24.4141 17.5547 24.9922 17.5547C25.5703 17.5547 26.0312 17.3776 26.375 17.0234C26.724 16.6641 26.8984 16.1953 26.8984 15.6172C26.8984 15.0391 26.7188 14.5677 26.3594 14.2031C26 13.8385 25.5443 13.6562 24.9922 13.6562ZM21.1953 39.8984H24.3672V41.2656H21.1953V44.8594H19.7422V41.2656H16.5703V39.8984H19.7422V36.5781H21.1953V39.8984Z" fill="white"/>
</g>
<defs>
<clipPath id="clip0">
<rect width="41" height="41" fill="white"/>
</clipPath>
</defs>
</svg>
