<svg width="80" height="80" viewBox="0 0 80 80" fill="none" xmlns="http://www.w3.org/2000/svg">
<circle opacity="0.5" cx="40" cy="40" r="40" fill="black"/>
<path d="M33 28C32.4477 28 32 28.4477 32 29C32 29.0013 32 29.0026 32 29.0039V40V50.9961C32 50.9974 32 50.9987 32 51C32 51.5523 32.4477 52 33 52C33.2082 51.9994 33.4109 51.9339 33.5801 51.8125L33.582 51.8145L53.416 40.9082C53.7714 40.7456 53.9995 40.3908 54 40C54.0002 39.5977 53.7593 39.2345 53.3887 39.0781L33.582 28.1855H33.5801C33.4107 28.0649 33.2079 28 33 28V28Z" fill="white"/>
</svg>
