<svg width="80" height="74" viewBox="0 0 80 74" fill="none" xmlns="http://www.w3.org/2000/svg">
<path fill-rule="evenodd" clip-rule="evenodd" d="M13.3649 24.4321V5.86675e-06L26.6825 0V17.7049L13.3649 24.4321ZM36.6706 24.4321V5.86675e-06L49.9882 0V17.7049L36.6706 24.4321ZM59.9763 5.86675e-06V24.4321L73.2938 17.7049V0L59.9763 5.86675e-06ZM3.3768 36.9997L30.0119 23.5453V35.3179L53.3175 23.5453V35.3179L76.6232 23.5453V67.2721C77.8239 67.255 78.9407 67.8923 79.546 68.94C80.1513 69.9878 80.1513 71.2837 79.546 72.3314C78.9407 73.3792 77.8239 74.0165 76.6232 73.9993H3.3768C2.17611 74.0165 1.05928 73.3792 0.453979 72.3314C-0.151326 71.2837 -0.151326 69.9878 0.453979 68.94C1.05928 67.8923 2.1761 67.255 3.3768 67.2721V36.9997ZM10.0356 43.7269H16.6943V50.4541H10.0356V43.7269ZM30.0119 43.7269H23.3531V50.4541H30.0119V43.7269ZM36.6706 43.7269H43.3294V50.4541H36.6706V43.7269ZM56.6469 50.4541V43.7269H49.9881V50.4541H56.6469ZM63.3057 43.7269H69.9644V50.4541H63.3057V43.7269ZM16.6943 57.1813H10.0356V63.9085H16.6943V57.1813ZM23.3531 57.1813H30.0119V63.9085H23.3531V57.1813ZM43.3294 57.1813H36.6706V63.9085H43.3294V57.1813ZM56.6469 57.1813V63.9085H49.9881V57.1813H56.6469ZM69.9644 57.1813H63.3057V63.9085H69.9644V57.1813Z" fill="#8CCCF7"/>
</svg>
