<?xml version="1.0" standalone="no"?>
<!DOCTYPE svg PUBLIC "-//W3C//DTD SVG 20010904//EN"
 "http://www.w3.org/TR/2001/REC-SVG-20010904/DTD/svg10.dtd">
<svg version="1.0" xmlns="http://www.w3.org/2000/svg"
 width="300.000000pt" height="300.000000pt" viewBox="0 0 300.000000 300.000000"
 preserveAspectRatio="xMidYMid meet">
<metadata>
Created by potrace 1.11, written by Peter Selinger 2001-2013
</metadata>
<g transform="translate(0.000000,300.000000) scale(0.100000,-0.100000)"
fill="#000000" stroke="none">
<path d="M0 1500 l0 -1500 1500 0 1500 0 0 1500 0 1500 -1500 0 -1500 0 0
-1500z m894 805 c70 -35 118 -89 148 -164 17 -45 22 -77 22 -161 1 -130 -17
-189 -79 -258 -66 -73 -125 -96 -250 -97 -84 0 -108 4 -153 24 -73 33 -137
106 -161 185 -19 61 -19 61 -57 61 l-39 0 -3 -132 -3 -133 -104 0 -105 0 0
350 0 351 103 -3 102 -3 3 -122 3 -123 42 0 42 0 17 58 c27 91 98 161 198 193
14 5 68 7 120 6 82 -3 103 -7 154 -32z m434 -102 l3 -123 99 0 100 0 0 125 0
125 105 0 105 0 0 -345 0 -345 -105 0 -104 0 -3 128 -3 127 -94 0 -94 0 2
-127 2 -128 -110 0 -111 0 0 338 c0 186 3 342 7 346 4 4 50 5 103 4 l95 -3 3
-122z m692 -103 c3 -124 9 -232 13 -241 13 -26 53 -39 117 -39 l60 0 2 253 3
252 103 3 102 3 0 -346 0 -346 -217 3 c-201 3 -221 5 -258 25 -54 29 -91 69
-112 123 -14 37 -18 88 -21 278 -2 128 -1 240 2 248 5 12 25 14 103 12 l98 -3
5 -225z m687 -542 c65 -24 143 -106 168 -175 9 -26 19 -84 22 -128 10 -146
-41 -273 -135 -335 -62 -41 -111 -53 -214 -53 -145 1 -240 57 -295 177 -26 56
-28 70 -28 181 0 116 1 123 33 187 47 96 121 149 232 168 61 11 154 1 217 -22z
m-1433 -3 c76 -20 120 -55 153 -123 28 -57 28 -57 31 -304 l4 -248 -106 0
-106 0 0 215 c0 281 -2 285 -126 285 l-64 0 -2 -247 -3 -248 -102 -3 -103 -3
0 346 0 345 183 0 c131 0 199 -4 241 -15z m738 -28 c114 -56 163 -147 163
-307 0 -124 -21 -186 -84 -250 -59 -61 -129 -87 -256 -96 l-95 -7 0 -113 0
-114 -105 0 -105 0 0 461 0 460 213 -3 c209 -3 213 -3 269 -31z"/>
<path d="M670 2148 c-39 -20 -70 -92 -70 -163 0 -146 60 -216 160 -186 59 17
83 58 88 150 8 135 -26 199 -110 208 -24 2 -54 -2 -68 -9z"/>
<path d="M2492 1384 c-41 -29 -56 -72 -57 -164 0 -101 19 -145 78 -173 33 -17
42 -17 79 -5 64 20 82 53 87 155 6 147 -27 203 -118 203 -26 0 -56 -7 -69 -16z"/>
<path d="M1740 1225 l0 -155 65 0 c116 0 155 41 155 160 0 111 -41 150 -155
150 l-65 0 0 -155z"/>
</g>
</svg>
